<svg width="32" height="32" viewBox="0 0 32 32" fill="none" xmlns="http://www.w3.org/2000/svg">
<path d="M32 16C32 24.8366 24.8366 32 16 32C7.16344 32 0 24.8366 0 16C0 7.16344 7.16344 0 16 0C24.8366 0 32 7.16344 32 16Z" fill="#AAAAAA" fill-opacity="0.13"/>
<path d="M17.528 11.5327C17.8222 11.2411 17.8243 10.7662 17.5327 10.472C17.2411 10.1778 16.7662 10.1757 16.472 10.4673L14.6773 12.2461C14.0013 12.916 13.4489 13.4636 13.0571 13.9515C12.6496 14.4588 12.3547 14.9737 12.2759 15.5918C12.2414 15.8629 12.2414 16.1371 12.2759 16.4082C12.3547 17.0263 12.6496 17.5412 13.0571 18.0485C13.4489 18.5364 14.0013 19.084 14.6773 19.7539L16.472 21.5327C16.7662 21.8243 17.2411 21.8222 17.5327 21.528C17.8243 21.2338 17.8222 20.7589 17.528 20.4673L15.765 18.72C15.0495 18.0109 14.5587 17.5228 14.2266 17.1093C13.904 16.7076 13.7933 16.4496 13.7639 16.2185C13.7454 16.0734 13.7454 15.9266 13.7639 15.7815C13.7933 15.5504 13.904 15.2924 14.2266 14.8907C14.5587 14.4772 15.0495 13.9891 15.765 13.28L17.528 11.5327Z" fill="#545454"/>
</svg>
